<svg width="22" height="22" viewBox="0 0 22 22" fill="none" xmlns="http://www.w3.org/2000/svg">
<path d="M8.68278 0C3.89504 0 0 3.89528 0 8.68332C0 13.4714 3.89504 17.3666 8.68278 17.3666C10.5984 17.3666 12.3689 16.7425 13.8056 15.6883C13.8056 15.6883 14.7702 16.6326 14.8164 16.6489C14.8164 16.657 14.815 16.6638 14.815 16.672C14.815 17.136 14.9954 17.5729 15.3238 17.8998L18.9163 21.4926C19.2554 21.8318 19.6991 22 20.1441 22C20.589 22 21.034 21.8318 21.3719 21.4926L21.4912 21.3718C21.8196 21.0448 22 20.6093 22 20.1453C22 19.6813 21.8196 19.2444 21.4912 18.9174L17.8987 15.3247C17.5541 14.9801 17.101 14.8132 16.6492 14.82C16.6316 14.7725 15.6873 13.8065 15.6873 13.8065C16.7415 12.3697 17.3656 10.5991 17.3656 8.68332C17.3656 3.89528 13.4705 0 8.68278 0ZM8.68278 0.694665C13.0879 0.694665 16.6709 4.27789 16.6709 8.68332C16.6709 13.0887 13.0879 16.672 8.68278 16.672C4.27763 16.672 0.694623 13.0887 0.694623 8.68332C0.694623 4.27789 4.27763 0.694665 8.68278 0.694665ZM8.68278 2.084C6.92045 2.084 5.26258 2.77052 4.01579 4.01603C1.44351 6.58982 1.44351 10.7768 4.01579 13.3492C5.26258 14.5961 6.92045 15.2826 8.68278 15.2826C10.4451 15.2826 12.103 14.5961 13.3498 13.3506C15.9221 10.7768 15.9221 6.58982 13.3498 4.01603C12.103 2.77052 10.4451 2.084 8.68278 2.084ZM8.68278 2.77866C10.2592 2.77866 11.7421 3.39328 12.8573 4.50854C15.1596 6.80962 15.1596 10.557 12.8573 12.8581C11.7421 13.9734 10.2592 14.588 8.68278 14.588C7.10631 14.588 5.62346 13.9734 4.50826 12.8581C2.20597 10.557 2.20597 6.81098 4.50826 4.50854C5.62346 3.39328 7.10631 2.77866 8.68278 2.77866ZM8.6163 3.82066C7.35323 3.83558 6.1485 4.3403 5.24359 5.24391C5.10792 5.38094 5.10792 5.59938 5.24359 5.73642C5.31142 5.8029 5.40096 5.83817 5.4905 5.83817C5.57869 5.83817 5.66823 5.8029 5.73606 5.73642C6.62062 4.85045 7.84299 4.41221 9.0925 4.53568C9.28379 4.55196 9.45338 4.41492 9.47237 4.22362C9.49137 4.03232 9.35163 3.86272 9.16034 3.84372C8.97854 3.82609 8.79674 3.81795 8.6163 3.82066ZM11.0651 4.47191C10.9322 4.45291 10.7924 4.51397 10.7178 4.63743C10.6188 4.8016 10.6717 5.01462 10.8372 5.11366C11.1221 5.28733 11.3894 5.49627 11.6295 5.73642C11.6973 5.80426 11.7855 5.83817 11.8751 5.83817C11.9646 5.83817 12.0528 5.80426 12.122 5.73642C12.2563 5.60074 12.2563 5.38094 12.122 5.24527C11.8411 4.96577 11.5291 4.72155 11.1954 4.5194C11.1547 4.49497 11.1099 4.47869 11.0651 4.47191ZM3.82042 8.33599C3.62913 8.33599 3.47311 8.49066 3.47311 8.68332C3.47311 8.87598 3.62913 9.03065 3.82042 9.03065H4.51505C4.70634 9.03065 4.86236 8.87598 4.86236 8.68332C4.86236 8.49066 4.70634 8.33599 4.51505 8.33599H3.82042ZM12.8505 8.33599C12.6592 8.33599 12.5032 8.49066 12.5032 8.68332C12.5032 8.87598 12.6592 9.03065 12.8505 9.03065H13.5451C13.7364 9.03065 13.8925 8.87598 13.8925 8.68332C13.8925 8.49066 13.7364 8.33599 13.5451 8.33599H12.8505ZM4.82437 9.89763C4.7796 9.89627 4.73212 9.90441 4.6887 9.92205L4.04428 10.1825C3.86655 10.2545 3.78108 10.4566 3.85298 10.6344C3.90725 10.77 4.03749 10.8528 4.17452 10.8528C4.21793 10.8528 4.2627 10.8447 4.30476 10.827L4.94919 10.5665C5.12691 10.4946 5.21238 10.2924 5.14048 10.1147C5.08621 9.98174 4.96004 9.89898 4.82437 9.89763ZM12.5195 9.96411C12.3838 9.96411 12.2549 10.0442 12.1993 10.1758C12.1247 10.3535 12.2061 10.557 12.3838 10.6316L13.0228 10.903C13.0662 10.922 13.1124 10.9301 13.1585 10.9301C13.2942 10.9301 13.4217 10.8514 13.4787 10.7185C13.5533 10.5421 13.4705 10.3386 13.2942 10.264L12.6552 9.9926C12.6104 9.97361 12.5643 9.96411 12.5195 9.96411ZM5.73606 11.2829C5.64652 11.2829 5.55834 11.3168 5.4905 11.3846L4.99938 11.8758C4.86371 12.0115 4.86371 12.2313 4.99938 12.3669C5.06722 12.4348 5.1554 12.4687 5.24494 12.4687C5.33448 12.4687 5.42267 12.4348 5.4905 12.3669L5.98162 11.8758C6.11729 11.7401 6.11729 11.5203 5.98162 11.3846C5.91379 11.3168 5.82425 11.2829 5.73606 11.2829ZM11.6295 11.2829C11.5413 11.2829 11.4518 11.3168 11.3839 11.3846C11.2483 11.5203 11.2483 11.7401 11.3839 11.8758L11.8751 12.3669C11.9429 12.4348 12.0311 12.4687 12.1206 12.4687C12.2102 12.4687 12.2983 12.4348 12.3662 12.3669C12.5019 12.2313 12.5019 12.0115 12.3662 11.8758L11.8751 11.3846C11.8072 11.3168 11.7177 11.2829 11.6295 11.2829ZM7.05476 12.1729C6.91909 12.1729 6.79021 12.2516 6.73458 12.3846L6.46325 13.0236C6.38863 13.2 6.47139 13.4049 6.64776 13.4795C6.69253 13.4985 6.7373 13.5066 6.78342 13.5066C6.91774 13.5066 7.04662 13.4266 7.1036 13.295L7.37494 12.6559C7.44956 12.4796 7.3668 12.2747 7.19043 12.2001C7.14566 12.1811 7.09953 12.1729 7.05476 12.1729ZM10.2498 12.2001C10.205 12.2001 10.1575 12.2082 10.1141 12.2258C9.935 12.2977 9.84953 12.4999 9.92144 12.6776L10.1819 13.3221C10.2362 13.4578 10.3664 13.5392 10.5048 13.5392C10.5482 13.5392 10.5916 13.5311 10.6351 13.5134C10.8128 13.4415 10.8982 13.2393 10.8263 13.0616L10.5659 12.4171C10.5116 12.2842 10.3854 12.2028 10.2498 12.2001ZM8.68278 12.504C8.49149 12.504 8.33547 12.6586 8.33547 12.8513V13.546C8.33547 13.7386 8.49149 13.8933 8.68278 13.8933C8.87407 13.8933 9.03009 13.7386 9.03009 13.546V12.8513C9.03009 12.6586 8.87407 12.504 8.68278 12.504ZM15.2505 14.3533L15.9017 15.0059C15.7375 15.0873 15.5802 15.189 15.4431 15.3261L15.3238 15.4441C15.1881 15.5798 15.0863 15.7358 15.0036 15.9013L14.3524 15.2514C14.6739 14.9747 14.9737 14.6748 15.2505 14.3533ZM16.6709 15.5106C16.9382 15.5106 17.2055 15.6123 17.409 15.8158L21.0015 19.4086C21.1982 19.6053 21.3054 19.8672 21.3054 20.1453C21.3054 20.4234 21.1968 20.6853 21.0001 20.882L20.8807 21.0014C20.4737 21.4071 19.8144 21.4071 19.4074 21.0014L15.8149 17.4087C15.6182 17.212 15.5096 16.9501 15.5096 16.672C15.5096 16.3938 15.6182 16.132 15.8149 15.9352L15.9343 15.8158C16.1378 15.6123 16.405 15.5106 16.6709 15.5106Z" fill="black"/>
</svg>
