<svg width="42" height="38" viewBox="0 0 42 38" fill="none" xmlns="http://www.w3.org/2000/svg">
<g clip-path="url(#clip0_20_65)">
<path d="M5.96513 10.0692C4.61417 11.4108 4.78957 13.841 6.03198 15.2864C7.2744 16.7318 9.29232 17.2891 11.1807 17.1865C13.0691 17.0839 14.8754 16.4082 16.5526 16.0074L16.2236 10.6147C12.586 10.6517 8.94839 10.6888 5.96513 10.0692Z" fill="#164212"/>
<path d="M41.6065 20.9899C41.3397 19.656 41.1577 18.3068 40.8917 16.9727C40.5255 15.0751 40.4883 12.736 40.1932 10.4915C39.9399 8.78627 39.5817 7.0914 38.9755 5.47644C38.6183 4.4538 38.1851 3.44789 37.5415 2.5744C36.6914 1.4593 35.5784 0.414892 34.1902 0.0893492C33.1195 -0.12634 32.0351 0.097739 30.9703 0.244582C28.9333 0.568926 26.7975 0.830722 24.4519 0.887835C22.3775 0.979059 20.3008 0.950489 18.2252 0.971581C15.693 1.0348 13.159 1.03407 10.6279 1.13749C9.48857 1.18524 8.35469 1.38194 7.38676 1.48748C6.26768 1.59934 5.14193 1.58037 4.02005 1.63851C3.78866 1.65853 3.55753 1.68311 3.32743 1.71487C3.59165 1.72028 3.85618 1.72881 4.11968 1.75018C1.66181 2.08855 0.65246 2.45419 0.309176 5.38134C0.215667 6.43399 0.271502 7.49222 0.301008 8.54669C0.332519 9.43967 0.321207 10.3337 0.361758 11.2263C0.496085 13.4883 0.682914 15.7531 0.517758 18.0191C0.480272 18.885 0.467825 19.7527 0.368906 20.6145C0.258072 21.7211 0.0818724 22.8215 0.0365169 23.9342C0.0237315 24.4966 -0.0556687 25.07 0.0698052 25.6242C0.377191 26.6136 1.47351 26.8696 2.34278 27.1338C3.39007 27.4608 4.43959 27.8003 5.52251 27.9842C6.35215 28.1049 7.19158 28.1414 8.02836 28.0933C10.0019 27.9998 11.9845 28.0249 13.9413 27.7116C15.1091 27.5408 16.6422 27.45 17.6395 27.5677C17.4249 29.1891 17.5618 30.8252 17.7133 32.4472C17.7818 32.8913 17.7848 33.3563 17.8428 33.8067C17.595 34.5181 17.3657 35.2363 17.1163 35.9471C17.006 36.278 16.8956 36.6089 16.7882 36.9407C16.6936 37.1961 16.6347 37.5094 16.8416 37.7257C17.0949 37.9962 17.5056 37.963 17.8448 37.9926C18.3912 38.0114 18.9383 37.9978 19.4831 37.9519C20.2299 37.8936 21.3007 37.677 21.6415 37.6421C21.5984 37.648 21.5553 37.6539 21.5122 37.6597C22.294 37.5584 23.0839 37.5457 23.867 37.4575C24.9035 37.3274 25.9453 37.2504 26.9832 37.133C27.4233 37.0552 28.2083 37.1395 28.1617 36.484C28.1017 35.3252 27.113 34.559 26.3571 33.8092C26.1108 33.5656 25.8525 33.3342 25.6151 33.0817C25.7255 32.544 25.78 31.996 25.7777 31.4467C25.7844 30.2499 25.6773 29.0564 25.5771 27.865C25.5757 27.8507 25.5733 27.8364 25.5717 27.822C25.9387 27.7662 26.3055 27.7096 26.6721 27.6569C28.1737 27.3777 30.3382 27.443 32.221 27.3737C34.7612 27.2179 38.961 27.7889 40.8546 25.9087C41.4788 25.3622 41.9722 24.6261 41.9924 23.7659C42.0533 22.8267 41.7327 21.9135 41.6065 20.9899ZM17.667 27.5715C17.7982 27.5877 17.9207 27.6072 18.0305 27.6311C19.3531 27.8809 20.6746 28.1785 22.0275 28.1706C23.2032 28.1705 24.3684 28.0047 25.5304 27.8283C25.3835 29.4436 25.3383 31.0373 25.0403 32.4347C24.8622 33.2581 24.6179 33.7903 24.1379 34.156C23.9891 34.2704 23.5821 34.2674 22.9736 34.2822C22.0378 34.3008 21.1039 34.3739 20.1764 34.5012C19.411 34.5946 19.0358 34.6035 18.8671 34.427C18.6781 34.1113 18.7529 34.2414 18.6504 33.946C18.5222 33.3927 18.4534 32.8261 18.3243 32.2722C17.9986 30.6069 17.6972 29.1938 17.667 27.5715ZM25.6243 33.1795C26.2971 34.2448 27.4982 35.382 27.5396 36.3939C26.8265 36.4282 26.1113 36.4222 25.3976 36.4472C24.7632 36.4534 24.1311 36.5113 23.4978 36.5422C22.8197 36.577 22.1382 36.5776 21.4655 36.6805C19.9429 36.9483 18.6988 37.2805 17.3606 37.2423C17.3716 37.2074 17.3789 37.1714 17.3824 37.1349C17.5918 36.1711 17.7562 35.1987 17.918 34.226C17.9656 34.4352 18.0405 34.637 18.1407 34.8261C18.567 35.5773 19.5335 35.4829 20.266 35.412C21.1439 35.3153 22.0238 35.2458 22.9046 35.183C23.5407 35.1216 24.2812 35.1765 24.7649 34.6773C25.1783 34.2535 25.4678 33.722 25.6014 33.1416C25.6092 33.1542 25.6164 33.167 25.6243 33.1795ZM41.1194 23.3757C41.1192 23.4772 41.1172 23.5787 41.1104 23.6799C41.1082 23.7465 41.1025 23.813 41.0933 23.879C40.9557 24.5341 40.891 24.5917 40.3967 25.122C39.9807 25.5083 40.0188 25.5256 39.565 25.7795C38.2136 26.4741 36.2577 26.4481 34.2986 26.4623C32.889 26.466 31.4803 26.5186 30.071 26.5376C28.9753 26.5462 27.8769 26.5634 26.7912 26.7294C24.8411 26.9884 23.3465 27.3593 21.2617 27.2361C20.1629 27.1992 19.2047 26.8943 17.8977 26.7047C16.1503 26.4512 14.3963 26.7713 12.6616 26.9806C11.3161 27.132 9.95994 27.1022 8.60999 27.184C6.87095 27.2801 5.67057 27.2313 4.09253 26.7508C3.39862 26.554 2.71251 26.3302 2.02159 26.1229C1.29141 25.8747 1.13087 25.8263 0.888997 25.3956C0.750928 24.7691 1.03686 22.101 1.21363 20.6777C1.33423 19.6293 1.33347 18.5731 1.39032 17.5204C1.50282 15.6818 1.38015 13.8424 1.26322 12.0073C1.17656 10.6862 1.19343 9.36032 1.07813 8.04079C0.987801 6.35427 0.620347 4.28141 1.62712 2.9079C2.35239 2.21994 3.353 2.04543 4.28329 1.76504C4.29248 1.766 4.30167 1.76654 4.31086 1.76754C5.33395 1.87557 6.35718 2.00066 7.38676 2.01827C8.30109 2.02726 9.21421 1.9458 10.1286 1.95214C11.6151 1.96513 13.1012 2.02558 14.588 2.0014C16.3232 1.97652 18.0574 1.90122 19.7929 1.90097C22.5067 1.88537 25.2281 1.88359 27.9309 1.61029C29.9332 1.42411 32.2756 0.876788 33.6727 0.984263C35.343 1.20153 36.8873 2.96298 37.6637 4.84263C37.7814 5.15301 38.4458 6.87855 38.6623 7.69045C38.9404 8.75438 39.1579 9.83365 39.3138 10.9229C39.5557 12.8926 39.6638 15.7872 40.1996 18.0485C40.458 19.4578 40.7099 20.8685 40.9553 22.2804C41.0166 22.8312 41.1359 23.0215 41.1194 23.3757Z" fill="black"/>
<path d="M3.14423 3.27856C2.3273 3.29909 2.32946 4.51245 3.14426 4.53522C3.96119 4.51469 3.95907 3.30134 3.14423 3.27856Z" fill="black"/>
<path d="M34.2524 4.90044C32.6359 4.48413 30.9491 4.64953 29.2982 4.63056C26.3152 4.64973 23.344 4.91088 20.3891 5.31494C18.4927 5.54412 16.5832 5.70306 14.6722 5.63154C13.147 5.59183 11.6205 5.48307 10.095 5.56254C7.55259 5.71246 5.00359 5.94724 2.5061 6.46589C5.27163 6.27918 8.0488 6.40407 10.8169 6.47219C12.8705 6.59406 14.9262 6.77647 16.9851 6.69422C18.9239 6.60758 20.8467 6.34186 22.7734 6.12218C24.8291 5.89038 26.8927 5.74119 28.9487 5.51243C30.7522 5.38202 32.6373 4.93303 34.4067 5.15546C34.8123 5.21803 35.2093 5.32706 35.615 5.39008C35.1584 5.2337 34.7198 5.0233 34.2524 4.90044Z" fill="black"/>
<path d="M5.09395 3.25195C4.27703 3.27248 4.27915 4.48584 5.09399 4.5086C5.91091 4.48808 5.90879 3.27473 5.09395 3.25195Z" fill="black"/>
<path d="M7.11934 3.0238C6.30242 3.04433 6.30454 4.25769 7.11934 4.28045C7.9363 4.25993 7.93418 3.04658 7.11934 3.0238Z" fill="black"/>
<path d="M15.6301 11.575C15.5452 11.0003 15.4534 10.4261 15.3162 9.86152C15.21 9.40934 15.0204 8.89744 14.5433 8.74293C13.955 8.57068 13.3406 8.67337 12.7486 8.77145C11.8087 8.91765 11.3806 9.00925 10.4951 9.06621C8.55127 9.21184 5.74062 9.17505 4.23516 9.47404C5.45404 9.47129 6.67231 9.57109 7.88808 9.65283C9.0773 9.72633 10.2723 9.80699 11.4635 9.73706C12.1998 9.6889 12.9299 9.56523 13.6664 9.52466C14.0501 9.53629 13.9157 9.50661 14.2615 9.59349C14.5021 9.83785 14.8266 12.1003 14.9129 13.0687C14.9777 13.808 14.8177 14.3992 14.7238 14.5331C14.6531 14.5503 14.5654 14.5643 14.5256 14.5702C14.54 14.5683 14.5619 14.5654 14.5937 14.5613C14.5395 14.5676 14.4855 14.5752 14.4315 14.583C14.4561 14.5792 14.4745 14.5765 14.4894 14.5745C14.4728 14.5764 14.4511 14.5787 14.4218 14.5816C13.5897 14.6584 12.7529 14.6697 11.9191 14.6154C11.5643 14.5952 11.2122 14.5437 10.8576 14.5221C10.4217 14.52 9.98614 14.5468 9.5537 14.6024C7.99654 14.7582 5.44882 15.5551 4.30174 14.9239C4.29641 14.9202 4.29108 14.9165 4.28578 14.9128C4.2315 14.8519 4.22908 14.873 4.20214 14.8153C4.19734 14.8035 4.19462 14.7965 4.19235 14.7904C4.03793 14.1749 4.03131 13.4613 3.95055 12.6896C3.90077 11.9367 3.72147 11.2037 3.57288 10.4668C3.48947 10.0236 3.46284 9.57079 3.3951 9.09629C3.40421 9.56154 3.37936 10.0277 3.41144 10.4922C3.47521 11.2389 3.57527 11.9843 3.54678 12.7356C3.53975 13.3018 3.52477 13.8687 3.54871 14.4347C3.56589 14.7674 3.59399 15.1359 3.85375 15.3734C5.06745 16.4369 8.29764 15.6042 9.34936 15.5056C10.1295 15.3867 10.9224 15.3809 11.7042 15.4884C12.5535 15.5567 13.4067 15.5612 14.2567 15.5019C14.6247 15.4597 15.0506 15.4888 15.3387 15.2153C16.1687 14.219 15.7744 12.7487 15.6301 11.575Z" fill="black"/>
<path d="M14.5256 14.5702C14.4945 14.5744 14.5003 14.5739 14.5256 14.5702V14.5702Z" fill="black"/>
<path d="M14.4895 14.5745C14.535 14.5692 14.5337 14.5683 14.4895 14.5745V14.5745Z" fill="black"/>
<path d="M30.2637 8.92669C28.661 8.97589 27.0545 8.93215 25.4544 9.04621C24.2299 9.13665 23.0221 9.37235 21.8242 9.63718C24.3122 9.50777 26.8279 9.62121 29.2889 9.17322C29.6885 9.09683 30.0864 9.011 30.4847 8.92762C30.411 8.92707 30.3373 8.92644 30.2637 8.92669Z" fill="black"/>
<path d="M30.5093 11.5518C29.5531 11.1959 28.5088 11.3835 27.513 11.3701C26.6221 11.386 25.7341 11.4618 24.8447 11.5095C24.0551 11.5415 23.2637 11.5565 22.481 11.6762C23.9512 11.7822 25.4167 12.035 26.8947 11.897C27.6117 11.8508 28.3248 11.7588 29.0343 11.646C29.5236 11.5718 29.8676 11.4984 30.4263 11.5543C30.4682 11.5543 30.616 11.5885 30.5093 11.5518Z" fill="black"/>
<path d="M22.8503 14.381C23.8853 14.4179 24.9209 14.5045 25.957 14.4568C27.5631 14.3487 29.1543 14.0763 30.7064 13.6438C27.8259 13.6784 25.6109 13.9799 22.8503 14.381Z" fill="black"/>
<path d="M31.7017 17.5897C29.484 17.5352 27.2834 17.1308 25.0605 17.2306C22.7499 17.2404 21.007 17.7441 18.9045 17.8C17.0707 17.8955 15.2333 17.7315 13.4007 17.8555C12.1028 17.9594 10.8135 18.1527 9.51998 18.2998C7.94542 18.4709 6.38978 18.7888 4.8728 19.2495C6.20947 19.0262 7.55967 18.8959 8.91391 18.8598C10.3734 18.8432 11.8312 18.771 13.2899 18.7311C15.2575 18.7366 17.2244 18.9085 19.1922 18.7977C21.5793 18.6862 23.3037 18.2344 25.5567 18.1101C27.6329 17.9036 29.7293 18.0464 31.8004 17.7745C32.1915 17.7241 32.5823 17.6706 32.9726 17.6138C32.5489 17.6072 32.1253 17.5991 31.7017 17.5897Z" fill="black"/>
<path d="M30.8337 19.7831C28.946 19.7879 26.7488 20.225 25.2157 20.407C23.5445 20.6114 21.8603 20.6601 20.1786 20.6825C17.4344 20.727 14.6984 20.9472 11.9597 21.1084C10.879 21.1558 9.79735 21.1799 8.71689 21.234C7.85556 21.2841 6.99631 21.3885 6.18616 21.7046C7.04896 21.4874 7.9353 21.4918 8.81721 21.5469C9.95592 21.617 11.0931 21.7183 12.2336 21.756C15.147 21.8534 18.0607 21.7031 20.9741 21.6782C22.5872 21.6505 24.1941 21.4673 25.773 21.1311C27.5708 20.7245 29.3382 20.1779 31.1649 19.9104C31.4441 19.8638 31.7235 19.8174 32.0039 19.7782C31.6138 19.7734 31.2238 19.775 30.8337 19.7831Z" fill="black"/>
<path d="M30.9243 22.8361C29.1163 22.9484 27.3038 22.9606 25.497 23.0892C23.1753 23.3314 20.8426 23.3601 18.5135 23.479C16.709 23.5629 14.9046 23.6474 13.0987 23.6933C11.4979 23.8005 9.86909 23.8712 8.32043 24.3261C9.17133 24.2006 10.0323 24.1595 10.891 24.2034C11.9489 24.2184 13.0049 24.2732 14.0589 24.368C15.553 24.4927 17.0536 24.5234 18.5523 24.5171C20.9654 24.4947 23.3771 24.3361 25.7498 23.8733C27.4806 23.601 29.2162 23.3675 30.9237 22.9634C31.1624 22.9163 31.4037 22.884 31.6462 22.8667C31.4064 22.8416 31.1653 22.8313 30.9243 22.8361Z" fill="black"/>
</g>
<defs>
<clipPath id="clip0_20_65">
<rect width="42" height="38" fill="white"/>
</clipPath>
</defs>
</svg>
